<svg width="193" height="36" viewBox="0 0 193 36" fill="none" xmlns="http://www.w3.org/2000/svg">
<path fill-rule="evenodd" clip-rule="evenodd" d="M10.9556 2.25C10.6572 2.25 10.3711 2.36853 10.1601 2.5795C9.9491 2.79048 9.83057 3.07663 9.83057 3.375V9.375C9.83057 9.67337 9.9491 9.95952 10.1601 10.1705C10.3711 10.3815 10.6572 10.5 10.9556 10.5H12.4556C13.0769 10.5 13.5806 11.0037 13.5806 11.625V11.888L15.6268 10.6603C15.8016 10.5554 16.0017 10.5 16.2056 10.5H19.9556C20.2539 10.5 20.5401 10.3815 20.7511 10.1705C20.962 9.95952 21.0806 9.67337 21.0806 9.375V3.375C21.0806 3.07663 20.962 2.79048 20.7511 2.5795C20.5401 2.36853 20.2539 2.25 19.9556 2.25H10.9556ZM11.3306 12.75H10.9556C10.0605 12.75 9.20202 12.3944 8.56909 11.7615C7.93615 11.1286 7.58057 10.2701 7.58057 9.375V7.51265C4.80261 7.70073 2.58037 9.96284 2.48133 12.7855L2.2545 19.2502C2.11308 23.2806 5.34214 26.625 9.37512 26.625H22.5806L22.5806 24.375C22.5806 23.4799 22.9361 22.6215 23.5691 21.9885C24.202 21.3556 25.0605 21 25.9556 21H34.9556C35.8507 21 36.7091 21.3556 37.3421 21.9885C37.975 22.6215 38.3306 23.4799 38.3306 24.375V30.375C38.3306 31.2701 37.975 32.1286 37.3421 32.7615C36.7091 33.3944 35.8507 33.75 34.9556 33.75H31.5172L28.0344 35.8397C27.6868 36.0482 27.254 36.0537 26.9013 35.854C26.5486 35.6543 26.3306 35.2803 26.3306 34.875V33.75H25.9556C25.0605 33.75 24.202 33.3944 23.5691 32.7615C22.9361 32.1286 22.5806 31.2701 22.5806 30.375L22.5806 28.875H9.37512C4.06857 28.875 -0.180193 24.4745 0.00588732 19.1713L0.232716 12.7066C0.374266 8.67244 3.58994 5.44992 7.58057 5.25895V3.375C7.58057 2.4799 7.93615 1.62145 8.56909 0.988515C9.20202 0.355579 10.0605 0 10.9556 0H19.9556C20.8507 0 21.7091 0.355579 22.3421 0.988515C22.975 1.62145 23.3306 2.47989 23.3306 3.375V9.375C23.3306 10.2701 22.975 11.1286 22.3421 11.7615C21.7091 12.3944 20.8507 12.75 19.9556 12.75H16.5172L13.0344 14.8397C12.6868 15.0482 12.254 15.0537 11.9013 14.854C11.5486 14.6543 11.3306 14.2803 11.3306 13.875V12.75ZM28.5806 32.888L30.6268 31.6603C30.8016 31.5554 31.0017 31.5 31.2056 31.5H34.9556C35.2539 31.5 35.5401 31.3815 35.7511 31.1705C35.962 30.9595 36.0806 30.6734 36.0806 30.375V24.375C36.0806 24.0766 35.962 23.7905 35.7511 23.5795C35.5401 23.3685 35.2539 23.25 34.9556 23.25H25.9556C25.6572 23.25 25.3711 23.3685 25.1601 23.5795C24.9491 23.7905 24.8306 24.0766 24.8306 24.375V30.375C24.8306 30.6734 24.9491 30.9595 25.1601 31.1705C25.3711 31.3815 25.6572 31.5 25.9556 31.5H27.4556C28.0769 31.5 28.5806 32.0037 28.5806 32.625V32.888ZM12.4556 5.25C13.0769 5.25 13.5806 5.75368 13.5806 6.375V6.3825C13.5806 7.00382 13.0769 7.5075 12.4556 7.5075C11.8343 7.5075 11.3306 7.00382 11.3306 6.3825V6.375C11.3306 5.75368 11.8343 5.25 12.4556 5.25ZM18.4556 5.25C19.0769 5.25 19.5806 5.75368 19.5806 6.375V6.3825C19.5806 7.00382 19.0769 7.5075 18.4556 7.5075C17.8343 7.5075 17.3306 7.00382 17.3306 6.3825V6.375C17.3306 5.75368 17.8343 5.25 18.4556 5.25ZM27.4556 26.25C28.0769 26.25 28.5806 26.7537 28.5806 27.375V27.3825C28.5806 28.0038 28.0769 28.5075 27.4556 28.5075C26.8342 28.5075 26.3306 28.0038 26.3306 27.3825V27.375C26.3306 26.7537 26.8342 26.25 27.4556 26.25ZM33.4556 26.25C34.0769 26.25 34.5806 26.7537 34.5806 27.375V27.3825C34.5806 28.0038 34.0769 28.5075 33.4556 28.5075C32.8342 28.5075 32.3306 28.0038 32.3306 27.3825V27.375C32.3306 26.7537 32.8342 26.25 33.4556 26.25Z" fill="#7B18CC"/>
<path fill-rule="evenodd" clip-rule="evenodd" d="M15.4554 5.24955C16.0767 5.24955 16.5804 5.75323 16.5804 6.37455V6.38205C16.5804 7.00337 16.0767 7.50705 15.4554 7.50705C14.8341 7.50705 14.3304 7.00337 14.3304 6.38205V6.37455C14.3304 5.75323 14.8341 5.24955 15.4554 5.24955ZM30.4554 26.2495C31.0767 26.2495 31.5804 26.7532 31.5804 27.3746V27.3821C31.5804 28.0034 31.0767 28.5071 30.4554 28.5071C29.8341 28.5071 29.3304 28.0034 29.3304 27.3821V27.3746C29.3304 26.7532 29.8341 26.2495 30.4554 26.2495Z" fill="#7B18CC"/>
<path d="M48.8944 29.6176C48.206 29.6176 47.6208 29.3594 47.1389 28.8431C46.6914 28.3267 46.5193 27.7244 46.6226 27.0359L48.7912 10.4615C48.8944 9.70418 49.2043 9.10179 49.7206 8.6543C50.2369 8.17238 50.8565 7.93142 51.5794 7.93142C53.0596 7.93142 54.0234 8.56824 54.4709 9.84187L57.982 19.9621C58.1541 20.3063 58.3262 20.4784 58.4983 20.4784C58.7393 20.4784 58.9114 20.3063 59.0147 19.9621L62.5258 9.84187C62.9732 8.56824 63.9199 7.93142 65.3656 7.93142C66.1573 7.93142 66.7941 8.17238 67.2761 8.6543C67.7924 9.10179 68.1022 9.70418 68.2055 10.4615L70.3741 27.0359C70.4773 27.7244 70.288 28.3267 69.8061 28.8431C69.3586 29.3594 68.7906 29.6176 68.1022 29.6176C67.4826 29.6176 66.949 29.4283 66.5015 29.0496C66.0885 28.6365 65.8475 28.1202 65.7787 27.5006L65.0042 16.7092C64.9697 16.2961 64.8321 16.0896 64.5911 16.0896C64.3501 16.0896 64.178 16.2617 64.0748 16.6059L61.08 25.0222C60.5981 26.2958 59.7375 26.9326 58.4983 26.9326C58.0164 26.9326 57.5345 26.7605 57.0526 26.4163C56.6051 26.0721 56.2437 25.6246 55.9683 25.0738L52.9735 16.7092C52.8702 16.3994 52.6981 16.2445 52.4572 16.2445C52.2506 16.2445 52.1129 16.451 52.0441 16.8641L51.218 27.5006C51.1835 28.1202 50.9426 28.6365 50.4951 29.0496C50.0476 29.4283 49.5141 29.6176 48.8944 29.6176Z" fill="black"/>
<path d="M82.3289 29.6176C80.7799 29.6176 79.4718 29.1357 78.4047 28.1718C78.0949 29.1357 77.3893 29.6176 76.2878 29.6176C75.6337 29.6176 75.083 29.4283 74.6355 29.0496C74.188 28.671 73.9642 28.1891 73.9642 27.6039V8.39613C73.9642 7.84537 74.1708 7.38066 74.5838 7.00202C75.0313 6.58895 75.5993 6.38241 76.2878 6.38241C76.9418 6.38241 77.4753 6.58895 77.8884 7.00202C78.3015 7.38066 78.508 7.86258 78.508 8.44776V15.2118C79.6784 14.1447 81.0036 13.6111 82.4838 13.6111C84.7557 13.6111 86.5629 14.334 87.9053 15.7798C89.2822 17.1911 89.9707 19.1187 89.9707 21.5627C89.9707 24.0067 89.2822 25.9688 87.9053 27.449C86.5284 28.8947 84.6696 29.6176 82.3289 29.6176ZM81.9675 25.4353C83.0346 25.4353 83.8779 25.0738 84.4975 24.3509C85.1515 23.5937 85.4786 22.6642 85.4786 21.5627C85.4786 20.4268 85.1515 19.5146 84.4975 18.8261C83.8779 18.1377 83.0346 17.7935 81.9675 17.7935C80.9348 17.7935 80.0914 18.1377 79.4374 18.8261C78.8178 19.5146 78.508 20.4268 78.508 21.5627C78.508 22.6642 78.8178 23.5937 79.4374 24.3509C80.0914 25.0738 80.9348 25.4353 81.9675 25.4353Z" fill="black"/>
<path d="M100.704 29.6176C99.2243 29.6176 97.8646 29.2734 96.6254 28.5849C95.3862 27.8965 94.3879 26.9498 93.6306 25.7451C92.9078 24.5058 92.5463 23.1117 92.5463 21.5627C92.5463 19.9793 92.9078 18.6024 93.6306 17.432C94.3879 16.2272 95.3862 15.2978 96.6254 14.6438C97.8646 13.9554 99.2243 13.6111 100.704 13.6111C102.219 13.6111 103.579 13.9554 104.784 14.6438C106.023 15.2978 107.004 16.2272 107.727 17.432C108.45 18.6024 108.811 19.9793 108.811 21.5627C108.811 23.1117 108.45 24.5058 107.727 25.7451C107.004 26.9498 106.023 27.8965 104.784 28.5849C103.579 29.2734 102.219 29.6176 100.704 29.6176ZM100.704 25.4353C101.772 25.4353 102.632 25.0738 103.286 24.3509C103.975 23.5937 104.319 22.6642 104.319 21.5627C104.319 20.4268 103.975 19.5146 103.286 18.8261C102.632 18.1377 101.772 17.7935 100.704 17.7935C99.6718 17.7935 98.794 18.1377 98.0711 18.8261C97.3827 19.5146 97.0385 20.4268 97.0385 21.5627C97.0385 22.6642 97.3827 23.5937 98.0711 24.3509C98.794 25.0738 99.6718 25.4353 100.704 25.4353Z" fill="black"/>
<path d="M119.15 29.6176C116.843 29.6176 114.967 28.8947 113.522 27.449C112.11 25.9688 111.405 24.0067 111.405 21.5627C111.405 19.1187 112.093 17.1911 113.47 15.7798C114.881 14.334 116.723 13.6111 118.995 13.6111C120.613 13.6111 122.024 14.1791 123.229 15.315C123.367 14.902 123.625 14.5578 124.003 14.2824C124.382 14.007 124.829 13.8693 125.346 13.8693C126.034 13.8693 126.585 14.0758 126.998 14.4889C127.446 14.8676 127.669 15.3323 127.669 15.883V27.6039C127.669 28.1891 127.446 28.671 126.998 29.0496C126.585 29.4283 126.034 29.6176 125.346 29.6176C124.21 29.6176 123.504 29.1185 123.229 28.1202C122.127 29.1185 120.768 29.6176 119.15 29.6176ZM119.511 25.4353C120.613 25.4353 121.491 25.0738 122.145 24.3509C122.799 23.5937 123.126 22.6642 123.126 21.5627C123.126 20.4268 122.799 19.5146 122.145 18.8261C121.491 18.1377 120.613 17.7935 119.511 17.7935C118.444 17.7935 117.566 18.1377 116.878 18.8261C116.224 19.5146 115.897 20.4268 115.897 21.5627C115.897 22.6642 116.224 23.5937 116.878 24.3509C117.566 25.0738 118.444 25.4353 119.511 25.4353Z" fill="black"/>
<path d="M138.777 29.6176C137.193 29.6176 135.713 29.3594 134.336 28.8431C132.959 28.2923 131.875 27.5695 131.083 26.6745C130.705 26.2614 130.515 25.7795 130.515 25.2287C130.515 24.6435 130.739 24.1272 131.187 23.6797C131.634 23.2322 132.168 23.0085 132.787 23.0085C133.372 23.0085 133.871 23.215 134.285 23.6281C134.87 24.1788 135.61 24.6091 136.505 24.9189C137.4 25.2287 138.278 25.3836 139.138 25.3836C140.033 25.3836 140.808 25.1943 141.462 24.8157C142.116 24.4026 142.443 23.7658 142.443 22.9052C142.443 22.1823 142.133 21.6316 141.513 21.2529C140.928 20.8399 139.93 20.5128 138.518 20.2719C136.006 19.8588 134.112 19.1704 132.839 18.2065C131.565 17.2083 130.928 15.8142 130.928 14.0242C130.928 12.0965 131.668 10.5647 133.149 9.4288C134.629 8.25844 136.574 7.67326 138.983 7.67326C141.462 7.67326 143.441 8.31007 144.921 9.5837C145.506 10.0656 145.799 10.6336 145.799 11.2876C145.799 11.8384 145.575 12.3203 145.128 12.7334C144.715 13.112 144.215 13.3013 143.63 13.3013C143.183 13.3013 142.77 13.1809 142.391 12.9399C141.083 12.1138 139.706 11.7007 138.26 11.7007C137.4 11.7007 136.677 11.8728 136.092 12.217C135.507 12.5612 135.214 13.0776 135.214 13.766C135.214 14.4889 135.661 15.0569 136.556 15.4699C137.486 15.883 138.828 16.2617 140.584 16.6059C141.548 16.778 142.494 17.0878 143.424 17.5353C144.388 17.9484 145.179 18.5852 145.799 19.4457C146.453 20.3063 146.78 21.4767 146.78 22.9568C146.78 24.9189 146.023 26.5196 144.508 27.7588C143.028 28.998 141.117 29.6176 138.777 29.6176Z" fill="black"/>
<path d="M151.91 29.6176C151.221 29.6176 150.636 29.3594 150.154 28.8431C149.707 28.3267 149.535 27.7244 149.638 27.0359L151.807 10.4615C151.91 9.70418 152.22 9.10179 152.736 8.6543C153.252 8.17238 153.872 7.93142 154.595 7.93142C156.075 7.93142 157.039 8.56824 157.486 9.84187L160.997 19.9621C161.169 20.3063 161.342 20.4784 161.514 20.4784C161.755 20.4784 161.927 20.3063 162.03 19.9621L165.541 9.84187C165.989 8.56824 166.935 7.93142 168.381 7.93142C169.173 7.93142 169.809 8.17238 170.291 8.6543C170.808 9.10179 171.118 9.70418 171.221 10.4615L173.389 27.0359C173.493 27.7244 173.303 28.3267 172.821 28.8431C172.374 29.3594 171.806 29.6176 171.118 29.6176C170.498 29.6176 169.964 29.4283 169.517 29.0496C169.104 28.6365 168.863 28.1202 168.794 27.5006L168.02 16.7092C167.985 16.2961 167.847 16.0896 167.606 16.0896C167.365 16.0896 167.193 16.2617 167.09 16.6059L164.095 25.0222C163.613 26.2958 162.753 26.9326 161.514 26.9326C161.032 26.9326 160.55 26.7605 160.068 26.4163C159.62 26.0721 159.259 25.6246 158.984 25.0738L155.989 16.7092C155.886 16.3994 155.713 16.2445 155.473 16.2445C155.266 16.2445 155.128 16.451 155.059 16.8641L154.233 27.5006C154.199 28.1202 153.958 28.6365 153.51 29.0496C153.063 29.4283 152.529 29.6176 151.91 29.6176Z" fill="black"/>
<path d="M184.208 29.6176C182.625 29.6176 181.145 29.3594 179.768 28.8431C178.391 28.2923 177.307 27.5695 176.515 26.6745C176.136 26.2614 175.947 25.7795 175.947 25.2287C175.947 24.6435 176.171 24.1272 176.618 23.6797C177.066 23.2322 177.599 23.0085 178.219 23.0085C178.804 23.0085 179.303 23.215 179.716 23.6281C180.301 24.1788 181.041 24.6091 181.936 24.9189C182.831 25.2287 183.709 25.3836 184.57 25.3836C185.465 25.3836 186.239 25.1943 186.893 24.8157C187.547 24.4026 187.874 23.7658 187.874 22.9052C187.874 22.1823 187.564 21.6316 186.945 21.2529C186.36 20.8399 185.361 20.5128 183.95 20.2719C181.437 19.8588 179.544 19.1704 178.27 18.2065C176.997 17.2083 176.36 15.8142 176.36 14.0242C176.36 12.0965 177.1 10.5647 178.58 9.4288C180.06 8.25844 182.005 7.67326 184.415 7.67326C186.893 7.67326 188.873 8.31007 190.353 9.5837C190.938 10.0656 191.23 10.6336 191.23 11.2876C191.23 11.8384 191.007 12.3203 190.559 12.7334C190.146 13.112 189.647 13.3013 189.062 13.3013C188.614 13.3013 188.201 13.1809 187.823 12.9399C186.515 12.1138 185.138 11.7007 183.692 11.7007C182.831 11.7007 182.109 11.8728 181.523 12.217C180.938 12.5612 180.646 13.0776 180.646 13.766C180.646 14.4889 181.093 15.0569 181.988 15.4699C182.917 15.883 184.26 16.2617 186.015 16.6059C186.979 16.778 187.926 17.0878 188.855 17.5353C189.819 17.9484 190.611 18.5852 191.23 19.4457C191.885 20.3063 192.212 21.4767 192.212 22.9568C192.212 24.9189 191.454 26.5196 189.94 27.7588C188.459 28.998 186.549 29.6176 184.208 29.6176Z" fill="black"/>
<path d="M83.5441 21.8114C83.3775 22.7367 83.0998 23.1721 82.1557 23.3353C81.1434 23.3353 80.6006 22.6945 80.6006 21.7026C80.6006 20.7773 81.0879 20.1242 82.1001 20.1242C83.1123 20.1242 83.5441 20.8195 83.5441 21.8114Z" fill="#7B18CC"/>
<path d="M102.276 21.8114C102.109 22.7367 101.831 23.1721 100.887 23.3353C99.8751 23.3353 99.3322 22.6945 99.3322 21.7026C99.3322 20.7773 99.8195 20.1242 100.832 20.1242C101.844 20.1242 102.276 20.8195 102.276 21.8114Z" fill="black"/>
<path d="M121.007 21.8114C120.841 22.7367 120.563 23.1721 119.619 23.3353C118.607 23.3353 118.064 22.6945 118.064 21.7026C118.064 20.7773 118.551 20.1242 119.563 20.1242C120.576 20.1242 121.007 20.8195 121.007 21.8114Z" fill="#7B18CC"/>
</svg>
